{"asset":{"version":"2.0","generator":"Blockbench 4.12.4 glTF exporter"},"scenes":[{"nodes":[6],"name":"blockbench_export"}],"scene":0,"nodes":[{"name":"Object_3","extras":{"name":"Object_3"},"mesh":0},{"name":"Object_2","extras":{"name":"Object_2"},"mesh":1},{"name":"Mineways2Skfbobjminecraftcleanermaterialmergergles","extras":{"name":"Mineways2Skfb.obj.minecraft.cleaner.materialmerger.gles"},"children":[0,1]},{"rotation":[-0.7071067811865475,0,0,0.7071067811865476],"name":"Sketchfab_model","extras":{"name":"Sketchfab_model"},"children":[2]},{"name":"Sketchfab_Scene","children":[3]},{"translation":[-0.125,0,-0.125],"scale":[3,3,3],"name":"scene","children":[4]},{"children":[5]}],"bufferViews":[{"buffer":0,"byteOffset":0,"byteLength":1248,"target":34962,"byteStride":12},{"buffer":0,"byteOffset":1248,"byteLength":1248,"target":34962,"byteStride":12},{"buffer":0,"byteOffset":2496,"byteLength":832,"target":34962,"byteStride":8},{"buffer":0,"byteOffset":3328,"byteLength":624,"target":34963},{"buffer":0,"byteOffset":3952,"byteLength":14928,"target":34962,"byteStride":12},{"buffer":0,"byteOffset":18880,"byteLength":14928,"target":34962,"byteStride":12},{"buffer":0,"byteOffset":33808,"byteLength":9952,"target":34962,"byteStride":8},{"buffer":0,"byteOffset":43760,"byteLength":7464,"target":34963}],"buffers":[{"byteLength":51224,"uri":"data:application/octet-stream;base64,"}],"accessors":[{"bufferView":0,"componentType":5126,"count":104,"max":[1,1,1],"min":[-1,-1,-1],"type":"VEC3"},{"bufferView":1,"componentType":5126,"count":104,"max":[0.008928562514483929,0,0.08035687357187271],"min":[0,-0.008928562514483929,0.02678568661212921],"type":"VEC3"},{"bufferView":2,"componentType":5126,"count":104,"max":[0.3857421875,0.0166015625],"min":[0.3525390625,0.0009765625],"type":"VEC2"},{"bufferView":3,"componentType":5125,"count":156,"max":[103],"min":[0],"type":"SCALAR"},{"bufferView":4,"componentType":5126,"count":1244,"max":[1,1,1],"min":[-1,-1,-1],"type":"VEC3"},{"bufferView":5,"componentType":5126,"count":1244,"max":[0.02678568661212921,0.017857125028967857,0.08928562700748444],"min":[-0.017857125028967857,-0.02678568661212921,0.0535714365541935],"type":"VEC3"},{"bufferView":6,"componentType":5126,"count":1244,"max":[0.9306640625,0.0166015625],"min":[0.9150390625,0.0009765625],"type":"VEC2"},{"bufferView":7,"componentType":5125,"count":1866,"max":[1243],"min":[0],"type":"SCALAR"}],"materials":[{"pbrMetallicRoughness":{"metallicFactor":0,"roughnessFactor":1,"baseColorTexture":{"index":0}},"emissiveFactor":[0.1,0.1,0.1],"emissiveTexture":{"index":0},"doubleSided":true,"name":"Oak_Log"},{"pbrMetallicRoughness":{"metallicFactor":0,"roughnessFactor":1,"baseColorTexture":{"index":1}},"emissiveFactor":[0.1,0.1,0.1],"emissiveTexture":{"index":0},"alphaMode":"MASK","alphaCutoff":0.2,"name":"Oak_Leaves"}],"textures":[{"sampler":0,"source":0},{"sampler":1,"source":1}],"samplers":[{"magFilter":9728,"minFilter":9986,"wrapS":10497,"wrapT":10497},{"magFilter":9728,"minFilter":9986,"wrapS":10497,"wrapT":10497}],"images":[{"mimeType":"image/png","uri":"data:image/png;base64,"},{"mimeType":"image/png","uri":"data:image/png;base64,"}],"meshes":[{"primitives":[{"mode":4,"attributes":{"NORMAL":0,"POSITION":1,"TEXCOORD_0":2},"indices":3,"material":0}]},{"primitives":[{"mode":4,"attributes":{"NORMAL":4,"POSITION":5,"TEXCOORD_0":6},"indices":7,"material":1}]}]}