{"asset":{"version":"2.0","generator":"Blockbench 4.12.4 glTF exporter"},"scenes":[{"nodes":[41],"name":"blockbench_export"}],"scene":0,"nodes":[{"rotation":[-0.043619387365336,0,0,0.9990482215818578],"translation":[0,-0.00390625,-0.00390625],"name":"hips_1","extras":{"name":"hips"},"mesh":0},{"rotation":[-0.043619387365336,0,0,0.9990482215818578],"translation":[0,-0.00390625,-0.00390625],"name":"belt","extras":{"name":"belt"},"mesh":1},{"rotation":[0.043619387365336,0,0,0.9990482215818578],"name":"waist","extras":{"name":"waist"},"children":[0,1]},{"rotation":[-0.02181488503456112,0,0,0.9997620270799091],"translation":[0.00390625,-0.01171875,-1.734723475976807e-18],"name":"lower_leg","extras":{"name":"lower_leg"},"mesh":2},{"rotation":[-0.02181488503456112,0,0,0.9997620270799091],"translation":[0.00390625,-0.01171875,-1.734723475976807e-18],"name":"shoe","extras":{"name":"shoe"},"mesh":3},{"translation":[0,0,3.469446951953614e-18],"name":"right_leg","extras":{"name":"right_leg"},"children":[3,4]},{"rotation":[0.043619387365336,0,0,0.9990482215818578],"translation":[-0.01171875,-0.01171875,0.0019531249999999983],"name":"right_thigh","extras":{"name":"right_thigh"},"children":[5]},{"rotation":[-0.02181488503456112,0,0,0.9997620270799091],"translation":[-0.00390625,-0.01171875,-1.734723475976807e-18],"name":"lower_leg_1","extras":{"name":"lower_leg"},"mesh":4},{"rotation":[-0.02181488503456112,0,0,0.9997620270799091],"translation":[-0.00390625,-0.01171875,-1.734723475976807e-18],"name":"shoe_1","extras":{"name":"shoe"},"mesh":5},{"translation":[0,0,3.469446951953614e-18],"name":"left_leg","extras":{"name":"left_leg"},"children":[7,8]},{"rotation":[0.043619387365336,0,0,0.9990482215818578],"translation":[0.01171875,-0.01171875,0.0019531249999999983],"name":"left_thigh","extras":{"name":"left_thigh"},"children":[9]},{"translation":[0,-0.0078125,0],"name":"hips","extras":{"name":"hips"},"children":[2,6,10]},{"rotation":[-0.5913096483635824,0,0,0.8064446042674827],"translation":[0,0,-0.01171875],"name":"cape_1","extras":{"name":"cape"},"mesh":6},{"translation":[0,0.015625,0.001953125],"name":"cape","extras":{"name":"cape"},"children":[12]},{"rotation":[0.043619387365336,0,0,0.9990482215818578],"translation":[0,0.00390625,0],"name":"chest_1","extras":{"name":"chest"},"mesh":7},{"rotation":[0.043619387365336,0,0,0.9990482215818578],"translation":[0,0.00390625,0],"name":"shirt","extras":{"name":"shirt"},"mesh":8},{"name":"torso","extras":{"name":"torso"},"children":[13,14,15]},{"rotation":[0.06540312923014306,0,0,0.9978589232386035],"translation":[0.011718750000000012,-0.0078125,0],"name":"upper_arm","extras":{"name":"upper_arm"},"mesh":9},{"rotation":[0.06540312923014306,0,0,0.9978589232386035],"translation":[0.011718750000000012,-0.0078125,0],"name":"sleeve","extras":{"name":"sleeve"},"mesh":10},{"rotation":[-0.08715574274765817,0,0,0.9961946980917455],"translation":[-0.005859375030390506,-0.015758674041034204,-0.005945721840749801],"name":"right_forearm","extras":{"name":"right_forearm"},"children":[17,18]},{"rotation":[0.06540312923014306,0,0,0.9978589232386035],"translation":[0.005859375000000016,-0.0078125,-0.0039062499999999974],"name":"upper_arm_2","extras":{"name":"upper_arm"},"mesh":11},{"rotation":[0.06540312923014306,0,0,0.9978589232386035],"translation":[0.005859375000000016,-0.0078125,-0.0039062499999999974],"name":"sleeve_2","extras":{"name":"sleeve"},"mesh":12},{"translation":[-3.039050955333522e-11,-0.0001336740410342041,-0.0020394718407498033],"name":"right_bicep","extras":{"name":"right_bicep"},"children":[20,21]},{"rotation":[0.04624699584488733,0.7055928060324469,-0.04624699653402128,0.7055928165465992],"translation":[-0.015625,0.015625,-0.0019531249999999983],"name":"right_arm","extras":{"name":"right_arm"},"children":[19,22]},{"rotation":[0.06540312923014306,0,0,0.9978589232386035],"translation":[-0.011718750000000012,-0.0078125,0],"name":"upper_arm_1","extras":{"name":"upper_arm"},"mesh":13},{"rotation":[0.06540312923014306,0,0,0.9978589232386035],"translation":[-0.011718750000000012,-0.0078125,0],"name":"sleeve_1","extras":{"name":"sleeve"},"mesh":14},{"rotation":[-0.08715574274765817,0,0,0.9961946980917455],"translation":[0.005859375030390506,-0.015758674041034204,-0.005945721840749801],"name":"left_forearm","extras":{"name":"left_forearm"},"children":[24,25]},{"rotation":[0.06540312923014306,0,0,0.9978589232386035],"translation":[-0.005859375000000016,-0.0078125,-0.0039062499999999974],"name":"upper_arm_3","extras":{"name":"upper_arm"},"mesh":15},{"rotation":[0.06540312923014306,0,0,0.9978589232386035],"translation":[-0.005859375000000016,-0.0078125,-0.0039062499999999974],"name":"sleeve_3","extras":{"name":"sleeve"},"mesh":16},{"translation":[3.039050955333522e-11,-0.0001336740410342041,-0.0020394718407498033],"name":"left_bicep","extras":{"name":"left_bicep"},"children":[27,28]},{"rotation":[0.04624699584488733,-0.7055928060324469,0.04624699653402128,0.7055928165465992],"translation":[0.015625,0.015625,-0.0019531249999999983],"name":"left_arm","extras":{"name":"left_arm"},"children":[26,29]},{"translation":[0,0.00390625,0],"name":"chest","extras":{"name":"chest"},"children":[16,23,30]},{"translation":[0,0.04296875,0],"name":"body","extras":{"name":"body"},"children":[11,31]},{"name":"skull","extras":{"name":"skull"},"mesh":17},{"name":"hair","extras":{"name":"hair"},"mesh":18},{"translation":[0,0.0625,0.001953125],"name":"head","extras":{"name":"head"},"children":[33,34]},{"rotation":[0,-1,0,6.123233995736766e-17],"name":"root","extras":{"name":"root"},"children":[32,35]},{"children":[36]},{"name":"blockbench_export","children":[37]},{"name":"small_human_1","children":[38]},{"name":"reference_model"},{"children":[39,40]}],"bufferViews":[{"buffer":0,"byteOffset":0,"byteLength":288,"target":34962,"byteStride":12},{"buffer":0,"byteOffset":288,"byteLength":288,"target":34962,"byteStride":12},{"buffer":0,"byteOffset":576,"byteLength":192,"target":34962,"byteStride":8},{"buffer":0,"byteOffset":768,"byteLength":72,"target":34963},{"buffer":0,"byteOffset":840,"byteLength":288,"target":34962,"byteStride":12},{"buffer":0,"byteOffset":1128,"byteLength":288,"target":34962,"byteStride":12},{"buffer":0,"byteOffset":1416,"byteLength":192,"target":34962,"byteStride":8},{"buffer":0,"byteOffset":1608,"byteLength":72,"target":34963},{"buffer":0,"byteOffset":1680,"byteLength":288,"target":34962,"byteStride":12},{"buffer":0,"byteOffset":1968,"byteLength":288,"target":34962,"byteStride":12},{"buffer":0,"byteOffset":2256,"byteLength":192,"target":34962,"byteStride":8},{"buffer":0,"byteOffset":2448,"byteLength":72,"target":34963},{"buffer":0,"byteOffset":2520,"byteLength":288,"target":34962,"byteStride":12},{"buffer":0,"byteOffset":2808,"byteLength":288,"target":34962,"byteStride":12},{"buffer":0,"byteOffset":3096,"byteLength":192,"target":34962,"byteStride":8},{"buffer":0,"byteOffset":3288,"byteLength":72,"target":34963},{"buffer":0,"byteOffset":3360,"byteLength":288,"target":34962,"byteStride":12},{"buffer":0,"byteOffset":3648,"byteLength":288,"target":34962,"byteStride":12},{"buffer":0,"byteOffset":3936,"byteLength":192,"target":34962,"byteStride":8},{"buffer":0,"byteOffset":4128,"byteLength":72,"target":34963},{"buffer":0,"byteOffset":4200,"byteLength":288,"target":34962,"byteStride":12},{"buffer":0,"byteOffset":4488,"byteLength":288,"target":34962,"byteStride":12},{"buffer":0,"byteOffset":4776,"byteLength":192,"target":34962,"byteStride":8},{"buffer":0,"byteOffset":4968,"byteLength":72,"target":34963},{"buffer":0,"byteOffset":5040,"byteLength":48,"target":34962,"byteStride":12},{"buffer":0,"byteOffset":5088,"byteLength":48,"target":34962,"byteStride":12},{"buffer":0,"byteOffset":5136,"byteLength":32,"target":34962,"byteStride":8},{"buffer":0,"byteOffset":5168,"byteLength":12,"target":34963},{"buffer":0,"byteOffset":5180,"byteLength":288,"target":34962,"byteStride":12},{"buffer":0,"byteOffset":5468,"byteLength":288,"target":34962,"byteStride":12},{"buffer":0,"byteOffset":5756,"byteLength":192,"target":34962,"byteStride":8},{"buffer":0,"byteOffset":5948,"byteLength":72,"target":34963},{"buffer":0,"byteOffset":6020,"byteLength":288,"target":34962,"byteStride":12},{"buffer":0,"byteOffset":6308,"byteLength":288,"target":34962,"byteStride":12},{"buffer":0,"byteOffset":6596,"byteLength":192,"target":34962,"byteStride":8},{"buffer":0,"byteOffset":6788,"byteLength":72,"target":34963},{"buffer":0,"byteOffset":6860,"byteLength":288,"target":34962,"byteStride":12},{"buffer":0,"byteOffset":7148,"byteLength":288,"target":34962,"byteStride":12},{"buffer":0,"byteOffset":7436,"byteLength":192,"target":34962,"byteStride":8},{"buffer":0,"byteOffset":7628,"byteLength":72,"target":34963},{"buffer":0,"byteOffset":7700,"byteLength":288,"target":34962,"byteStride":12},{"buffer":0,"byteOffset":7988,"byteLength":288,"target":34962,"byteStride":12},{"buffer":0,"byteOffset":8276,"byteLength":192,"target":34962,"byteStride":8},{"buffer":0,"byteOffset":8468,"byteLength":72,"target":34963},{"buffer":0,"byteOffset":8540,"byteLength":288,"target":34962,"byteStride":12},{"buffer":0,"byteOffset":8828,"byteLength":288,"target":34962,"byteStride":12},{"buffer":0,"byteOffset":9116,"byteLength":192,"target":34962,"byteStride":8},{"buffer":0,"byteOffset":9308,"byteLength":72,"target":34963},{"buffer":0,"byteOffset":9380,"byteLength":288,"target":34962,"byteStride":12},{"buffer":0,"byteOffset":9668,"byteLength":288,"target":34962,"byteStride":12},{"buffer":0,"byteOffset":9956,"byteLength":192,"target":34962,"byteStride":8},{"buffer":0,"byteOffset":10148,"byteLength":72,"target":34963},{"buffer":0,"byteOffset":10220,"byteLength":288,"target":34962,"byteStride":12},{"buffer":0,"byteOffset":10508,"byteLength":288,"target":34962,"byteStride":12},{"buffer":0,"byteOffset":10796,"byteLength":192,"target":34962,"byteStride":8},{"buffer":0,"byteOffset":10988,"byteLength":72,"target":34963},{"buffer":0,"byteOffset":11060,"byteLength":288,"target":34962,"byteStride":12},{"buffer":0,"byteOffset":11348,"byteLength":288,"target":34962,"byteStride":12},{"buffer":0,"byteOffset":11636,"byteLength":192,"target":34962,"byteStride":8},{"buffer":0,"byteOffset":11828,"byteLength":72,"target":34963},{"buffer":0,"byteOffset":11900,"byteLength":288,"target":34962,"byteStride":12},{"buffer":0,"byteOffset":12188,"byteLength":288,"target":34962,"byteStride":12},{"buffer":0,"byteOffset":12476,"byteLength":192,"target":34962,"byteStride":8},{"buffer":0,"byteOffset":12668,"byteLength":72,"target":34963},{"buffer":0,"byteOffset":12740,"byteLength":288,"target":34962,"byteStride":12},{"buffer":0,"byteOffset":13028,"byteLength":288,"target":34962,"byteStride":12},{"buffer":0,"byteOffset":13316,"byteLength":192,"target":34962,"byteStride":8},{"buffer":0,"byteOffset":13508,"byteLength":72,"target":34963},{"buffer":0,"byteOffset":13580,"byteLength":288,"target":34962,"byteStride":12},{"buffer":0,"byteOffset":13868,"byteLength":288,"target":34962,"byteStride":12},{"buffer":0,"byteOffset":14156,"byteLength":192,"target":34962,"byteStride":8},{"buffer":0,"byteOffset":14348,"byteLength":72,"target":34963},{"buffer":0,"byteOffset":14420,"byteLength":288,"target":34962,"byteStride":12},{"buffer":0,"byteOffset":14708,"byteLength":288,"target":34962,"byteStride":12},{"buffer":0,"byteOffset":14996,"byteLength":192,"target":34962,"byteStride":8},{"buffer":0,"byteOffset":15188,"byteLength":72,"target":34963}],"buffers":[{"byteLength":15260,"uri":"data:application/octet-stream;base64,"}],"accessors":[{"bufferView":0,"componentType":5126,"count":24,"max":[0.015625,0.008034036494791508,0.010550981387495995],"min":[-0.015625,-0.007590963505208492,-0.005074018612504005],"type":"VEC3"},{"bufferView":1,"componentType":5126,"count":24,"max":[1,1,1],"min":[-1,-1,-1],"type":"VEC3"},{"bufferView":2,"componentType":5126,"count":24,"max":[0.562255859375,0.640380859375],"min":[0.187744140625,0.515869140625],"type":"VEC2"},{"bufferView":3,"componentType":5123,"count":36,"max":[23],"min":[0],"type":"SCALAR"},{"bufferView":4,"componentType":5126,"count":24,"max":[0.01679687574505806,0.009205911308526993,0.01172285620123148],"min":[-0.01679687574505806,-0.008762838318943977,-0.0062458934262394905],"type":"VEC3"},{"bufferView":5,"componentType":5126,"count":24,"max":[1,1,1],"min":[-1,-1,-1],"type":"VEC3"},{"bufferView":6,"componentType":5126,"count":24,"max":[0.999755859375,0.640380859375],"min":[0.625244140625,0.515869140625],"type":"VEC2"},{"bufferView":7,"componentType":5123,"count":36,"max":[23],"min":[0],"type":"SCALAR"},{"bufferView":8,"componentType":5126,"count":24,"max":[0.00390625,0.011803943663835526,0.0058612339198589325],"min":[-0.0078125,-0.011633556336164474,-0.0058575160801410675],"type":"VEC3"},{"bufferView":9,"componentType":5126,"count":24,"max":[1,1,1],"min":[-1,-1,-1],"type":"VEC3"},{"bufferView":10,"componentType":5126,"count":24,"max":[0.562255859375,0.781005859375],"min":[0.375244140625,0.640869140625],"type":"VEC2"},{"bufferView":11,"componentType":5123,"count":36,"max":[23],"min":[0],"type":"SCALAR"},{"bufferView":12,"componentType":5126,"count":24,"max":[0.005078124813735485,0.012975819408893585,0.007033108733594418],"min":[-0.008984374813735485,-0.01280543114989996,-0.007029390893876553],"type":"VEC3"},{"bufferView":13,"componentType":5126,"count":24,"max":[1,1,1],"min":[-1,-1,-1],"type":"VEC3"},{"bufferView":14,"componentType":5126,"count":24,"max":[0.999755859375,0.515380859375],"min":[0.812744140625,0.375244140625],"type":"VEC2"},{"bufferView":15,"componentType":5123,"count":36,"max":[23],"min":[0],"type":"SCALAR"},{"bufferView":16,"componentType":5126,"count":24,"max":[0.0078125,0.011803943663835526,0.0058612339198589325],"min":[-0.00390625,-0.011633556336164474,-0.0058575160801410675],"type":"VEC3"},{"bufferView":17,"componentType":5126,"count":24,"max":[1,1,1],"min":[-1,-1,-1],"type":"VEC3"},{"bufferView":18,"componentType":5126,"count":24,"max":[0.562255859375,0.921630859375],"min":[0.375244140625,0.781494140625],"type":"VEC2"},{"bufferView":19,"componentType":5123,"count":36,"max":[23],"min":[0],"type":"SCALAR"},{"bufferView":20,"componentType":5126,"count":24,"max":[0.008984374813735485,0.012975819408893585,0.007033108733594418],"min":[-0.005078124813735485,-0.01280543114989996,-0.007029390893876553],"type":"VEC3"},{"bufferView":21,"componentType":5126,"count":24,"max":[1,1,1],"min":[-1,-1,-1],"type":"VEC3"},{"bufferView":22,"componentType":5126,"count":24,"max":[0.999755859375,0.374755859375],"min":[0.812744140625,0.234619140625],"type":"VEC2"},{"bufferView":23,"componentType":5123,"count":36,"max":[23],"min":[0],"type":"SCALAR"},{"bufferView":24,"componentType":5126,"count":4,"max":[0.03125,0,0],"min":[-0.03125,0,-0.0625],"type":"VEC3"},{"bufferView":25,"componentType":5126,"count":4,"max":[0,1,0],"min":[0,1,0],"type":"VEC3"},{"bufferView":26,"componentType":5126,"count":4,"max":[0.25,0.296875],"min":[0,0.046875],"type":"VEC2"},{"bufferView":27,"componentType":5123,"count":6,"max":[3],"min":[0],"type":"SCALAR"},{"bufferView":28,"componentType":5126,"count":24,"max":[0.015625,0.011333704926073551,0.00680600805208087],"min":[-0.015625,-0.012103795073926449,-0.008818991482257843],"type":"VEC3"},{"bufferView":29,"componentType":5126,"count":24,"max":[1,1,1],"min":[-1,-1,-1],"type":"VEC3"},{"bufferView":30,"componentType":5126,"count":24,"max":[0.374755859375,0.796630859375],"min":[0.000244140625,0.640869140625],"type":"VEC2"},{"bufferView":31,"componentType":5123,"count":36,"max":[23],"min":[0],"type":"SCALAR"},{"bufferView":32,"componentType":5126,"count":24,"max":[0.01679687574505806,0.012505579739809036,0.007977883331477642],"min":[-0.01679687574505806,-0.013275670818984509,-0.009990867227315903],"type":"VEC3"},{"bufferView":33,"componentType":5126,"count":24,"max":[1,1,1],"min":[-1,-1,-1],"type":"VEC3"},{"bufferView":34,"componentType":5126,"count":24,"max":[0.999755859375,0.796630859375],"min":[0.625244140625,0.640869140625],"type":"VEC2"},{"bufferView":35,"componentType":5123,"count":36,"max":[23],"min":[0],"type":"SCALAR"},{"bufferView":36,"componentType":5126,"count":24,"max":[3.039049567554741e-11,0.00760111166164279,0.004414640367031097],"min":[-0.01171875,-0.008023888804018497,-0.007304109632968903],"type":"VEC3"},{"bufferView":37,"componentType":5126,"count":24,"max":[1,1,1],"min":[-1,-1,-1],"type":"VEC3"},{"bufferView":38,"componentType":5126,"count":24,"max":[0.562255859375,0.515380859375],"min":[0.375244140625,0.406494140625],"type":"VEC2"},{"bufferView":39,"componentType":5123,"count":36,"max":[23],"min":[0],"type":"SCALAR"},{"bufferView":40,"componentType":5126,"count":24,"max":[0.0011718750465661287,0.008772986009716988,0.00558651564642787],"min":[-0.012890624813735485,-0.009195763617753983,-0.008475984446704388],"type":"VEC3"},{"bufferView":41,"componentType":5126,"count":24,"max":[1,1,1],"min":[-1,-1,-1],"type":"VEC3"},{"bufferView":42,"componentType":5126,"count":24,"max":[0.562255859375,0.406005859375],"min":[0.375244140625,0.297119140625],"type":"VEC2"},{"bufferView":43,"componentType":5123,"count":36,"max":[23],"min":[0],"type":"SCALAR"},{"bufferView":44,"componentType":5126,"count":24,"max":[3.039049567554741e-11,0.007734785322099924,0.006454112473875284],"min":[-0.01171875,-0.007890214212238789,-0.005264637526124716],"type":"VEC3"},{"bufferView":45,"componentType":5126,"count":24,"max":[1,1,1],"min":[-1,-1,-1],"type":"VEC3"},{"bufferView":46,"componentType":5126,"count":24,"max":[0.749755859375,0.515380859375],"min":[0.562744140625,0.406494140625],"type":"VEC2"},{"bufferView":47,"componentType":5123,"count":36,"max":[23],"min":[0],"type":"SCALAR"},{"bufferView":48,"componentType":5126,"count":24,"max":[0.0011718750465661287,0.008906660601496696,0.008016612380743027],"min":[-0.012890624813735485,-0.009062089957296848,-0.006045887712389231],"type":"VEC3"},{"bufferView":49,"componentType":5126,"count":24,"max":[1,1,1],"min":[-1,-1,-1],"type":"VEC3"},{"bufferView":50,"componentType":5126,"count":24,"max":[0.749755859375,0.406005859375],"min":[0.562744140625,0.297119140625],"type":"VEC2"},{"bufferView":51,"componentType":5123,"count":36,"max":[23],"min":[0],"type":"SCALAR"},{"bufferView":52,"componentType":5126,"count":24,"max":[0.01171875,0.00760111166164279,0.004414640367031097],"min":[-3.039049567554741e-11,-0.008023888804018497,-0.007304109632968903],"type":"VEC3"},{"bufferView":53,"componentType":5126,"count":24,"max":[1,1,1],"min":[-1,-1,-1],"type":"VEC3"},{"bufferView":54,"componentType":5126,"count":24,"max":[0.187255859375,0.515380859375],"min":[0.000244140625,0.406494140625],"type":"VEC2"},{"bufferView":55,"componentType":5123,"count":36,"max":[23],"min":[0],"type":"SCALAR"},{"bufferView":56,"componentType":5126,"count":24,"max":[0.012890624813735485,0.008772986009716988,0.00558651564642787],"min":[-0.0011718750465661287,-0.009195763617753983,-0.008475984446704388],"type":"VEC3"},{"bufferView":57,"componentType":5126,"count":24,"max":[1,1,1],"min":[-1,-1,-1],"type":"VEC3"},{"bufferView":58,"componentType":5126,"count":24,"max":[0.187255859375,0.406005859375],"min":[0.000244140625,0.297119140625],"type":"VEC2"},{"bufferView":59,"componentType":5123,"count":36,"max":[23],"min":[0],"type":"SCALAR"},{"bufferView":60,"componentType":5126,"count":24,"max":[0.01171875,0.007734785322099924,0.006454112473875284],"min":[-3.039049567554741e-11,-0.007890214212238789,-0.005264637526124716],"type":"VEC3"},{"bufferView":61,"componentType":5126,"count":24,"max":[1,1,1],"min":[-1,-1,-1],"type":"VEC3"},{"bufferView":62,"componentType":5126,"count":24,"max":[0.374755859375,0.515380859375],"min":[0.187744140625,0.406494140625],"type":"VEC2"},{"bufferView":63,"componentType":5123,"count":36,"max":[23],"min":[0],"type":"SCALAR"},{"bufferView":64,"componentType":5126,"count":24,"max":[0.012890624813735485,0.008906660601496696,0.008016612380743027],"min":[-0.0011718750465661287,-0.009062089957296848,-0.006045887712389231],"type":"VEC3"},{"bufferView":65,"componentType":5126,"count":24,"max":[1,1,1],"min":[-1,-1,-1],"type":"VEC3"},{"bufferView":66,"componentType":5126,"count":24,"max":[0.374755859375,0.406005859375],"min":[0.187744140625,0.297119140625],"type":"VEC2"},{"bufferView":67,"componentType":5123,"count":36,"max":[23],"min":[0],"type":"SCALAR"},{"bufferView":68,"componentType":5126,"count":24,"max":[0.01171875,0.02734375,0.009765625],"min":[-0.01171875,0,-0.013671875],"type":"VEC3"},{"bufferView":69,"componentType":5126,"count":24,"max":[1,1,1],"min":[-1,-1,-1],"type":"VEC3"},{"bufferView":70,"componentType":5126,"count":24,"max":[0.374755859375,0.999755859375],"min":[0.000244140625,0.797119140625],"type":"VEC2"},{"bufferView":71,"componentType":5123,"count":36,"max":[23],"min":[0],"type":"SCALAR"},{"bufferView":72,"componentType":5126,"count":24,"max":[0.012890624813735485,0.02851562574505806,0.010937499813735485],"min":[-0.01328125037252903,-0.0011718750465661287,-0.014843749813735485],"type":"VEC3"},{"bufferView":73,"componentType":5126,"count":24,"max":[1,1,1],"min":[-1,-1,-1],"type":"VEC3"},{"bufferView":74,"componentType":5126,"count":24,"max":[0.999755859375,0.999755859375],"min":[0.625244140625,0.797119140625],"type":"VEC2"},{"bufferView":75,"componentType":5123,"count":36,"max":[23],"min":[0],"type":"SCALAR"}],"materials":[{"pbrMetallicRoughness":{"metallicFactor":0,"roughnessFactor":1,"baseColorTexture":{"index":0}},"alphaMode":"MASK","alphaCutoff":0.05,"doubleSided":true}],"textures":[{"sampler":0,"source":0,"name":"costume_2.png"}],"samplers":[{"magFilter":9728,"minFilter":9728,"wrapS":33071,"wrapT":33071}],"images":[{"mimeType":"image/png","name":"Unknown","uri":"costume_2.png"}],"meshes":[{"primitives":[{"mode":4,"attributes":{"POSITION":0,"NORMAL":1,"TEXCOORD_0":2},"indices":3,"material":0}]},{"primitives":[{"mode":4,"attributes":{"POSITION":4,"NORMAL":5,"TEXCOORD_0":6},"indices":7,"material":0}]},{"primitives":[{"mode":4,"attributes":{"POSITION":8,"NORMAL":9,"TEXCOORD_0":10},"indices":11,"material":0}]},{"primitives":[{"mode":4,"attributes":{"POSITION":12,"NORMAL":13,"TEXCOORD_0":14},"indices":15,"material":0}]},{"primitives":[{"mode":4,"attributes":{"POSITION":16,"NORMAL":17,"TEXCOORD_0":18},"indices":19,"material":0}]},{"primitives":[{"mode":4,"attributes":{"POSITION":20,"NORMAL":21,"TEXCOORD_0":22},"indices":23,"material":0}]},{"primitives":[{"mode":4,"attributes":{"POSITION":24,"NORMAL":25,"TEXCOORD_0":26},"indices":27,"material":0}]},{"primitives":[{"mode":4,"attributes":{"POSITION":28,"NORMAL":29,"TEXCOORD_0":30},"indices":31,"material":0}]},{"primitives":[{"mode":4,"attributes":{"POSITION":32,"NORMAL":33,"TEXCOORD_0":34},"indices":35,"material":0}]},{"primitives":[{"mode":4,"attributes":{"POSITION":36,"NORMAL":37,"TEXCOORD_0":38},"indices":39,"material":0}]},{"primitives":[{"mode":4,"attributes":{"POSITION":40,"NORMAL":41,"TEXCOORD_0":42},"indices":43,"material":0}]},{"primitives":[{"mode":4,"attributes":{"POSITION":44,"NORMAL":45,"TEXCOORD_0":46},"indices":47,"material":0}]},{"primitives":[{"mode":4,"attributes":{"POSITION":48,"NORMAL":49,"TEXCOORD_0":50},"indices":51,"material":0}]},{"primitives":[{"mode":4,"attributes":{"POSITION":52,"NORMAL":53,"TEXCOORD_0":54},"indices":55,"material":0}]},{"primitives":[{"mode":4,"attributes":{"POSITION":56,"NORMAL":57,"TEXCOORD_0":58},"indices":59,"material":0}]},{"primitives":[{"mode":4,"attributes":{"POSITION":60,"NORMAL":61,"TEXCOORD_0":62},"indices":63,"material":0}]},{"primitives":[{"mode":4,"attributes":{"POSITION":64,"NORMAL":65,"TEXCOORD_0":66},"indices":67,"material":0}]},{"primitives":[{"mode":4,"attributes":{"POSITION":68,"NORMAL":69,"TEXCOORD_0":70},"indices":71,"material":0}]},{"primitives":[{"mode":4,"attributes":{"POSITION":72,"NORMAL":73,"TEXCOORD_0":74},"indices":75,"material":0}]}]}